<svg id="Layer_1" data-name="Layer 1" xmlns="http://www.w3.org/2000/svg" viewBox="0 0 500 112"><defs><style>.cls-1{fill:#ededed;}</style></defs><path class="cls-1" d="M33.64,49.05c-3.69-1.12-5.58-2.35-5.58-4.62,0-2.43,2.12-4.12,5-4.12a6.18,6.18,0,0,1,6.09,4.23l3.92-2.11C41.69,38.69,38.3,36,33.22,36a10.45,10.45,0,0,0-7.12,2.55,7.74,7.74,0,0,0-2.89,6.12,7,7,0,0,0,2.31,5.51,19.88,19.88,0,0,0,7.08,3.5c4.31,1.35,6,2.62,6,4.81,0,2.5-2.2,4.12-5.28,4.12a7.41,7.41,0,0,1-7.16-5l-4,2.08C23.9,64.34,28,67,33.3,67a10.52,10.52,0,0,0,7.47-2.58,8.18,8.18,0,0,0,2.77-6.13,7.22,7.22,0,0,0-2.16-5.39Q39.25,50.73,33.64,49.05Z"/><path class="cls-1" d="M56.69,45.62a9.74,9.74,0,0,0-7.39,3.12,10.61,10.61,0,0,0-3,7.55A10.45,10.45,0,0,0,49.41,64a10.58,10.58,0,0,0,7.71,3,9.77,9.77,0,0,0,8.78-5l-3.32-2.2A5.79,5.79,0,0,1,57,63a6.28,6.28,0,0,1-4.16-1.5A5.09,5.09,0,0,1,51,57.68h15.6c0-.35.07-.81.07-1.43a11,11,0,0,0-2.65-7.7A9.43,9.43,0,0,0,56.69,45.62Zm-5.43,8.59a5.33,5.33,0,0,1,5.43-4.66c2.93,0,5.2,1.77,5.35,4.66Z"/><path class="cls-1" d="M79.81,45.62a9.76,9.76,0,0,0-7.4,3.12,10.6,10.6,0,0,0-3,7.55A10.45,10.45,0,0,0,72.53,64a10.57,10.57,0,0,0,7.7,3A9.75,9.75,0,0,0,89,62l-3.31-2.2A5.81,5.81,0,0,1,80.15,63,6.27,6.27,0,0,1,76,61.53a5.05,5.05,0,0,1-1.85-3.85H89.74a12.2,12.2,0,0,0,.08-1.43,11,11,0,0,0-2.66-7.7A9.41,9.41,0,0,0,79.81,45.62Zm-5.43,8.59a5.32,5.32,0,0,1,5.43-4.66c2.92,0,5.2,1.77,5.35,4.66Z"/><path class="cls-1" d="M121.7,50.9a7.74,7.74,0,0,0,4-4.43,8.29,8.29,0,0,0,.3-2.08,7,7,0,0,0-2.65-5.81,10.89,10.89,0,0,0-7.05-2.12H104.84V66.61h11.9c7,0,10.7-3.35,10.7-8.43a7.57,7.57,0,0,0-1.31-4.24A7.85,7.85,0,0,0,121.7,50.9ZM109.54,40.73h6.19c3.86,0,5.59,1.66,5.59,4.16s-2,4.31-5.85,4.31h-5.93Zm7.27,21.6h-7.27v-9h7c4.16,0,6.2,1.81,6.2,4.43S120.63,62.33,116.81,62.33Z"/><path class="cls-1" d="M140.7,45.62a9.74,9.74,0,0,0-7.39,3.12,10.61,10.61,0,0,0-3,7.55A10.45,10.45,0,0,0,133.42,64a10.58,10.58,0,0,0,7.71,3,9.77,9.77,0,0,0,8.78-5l-3.32-2.2a5.79,5.79,0,0,1-5.54,3.2,6.28,6.28,0,0,1-4.16-1.5A5.09,5.09,0,0,1,135,57.68h15.6a12.61,12.61,0,0,0,.07-1.43,11,11,0,0,0-2.65-7.7A9.43,9.43,0,0,0,140.7,45.62Zm-5.43,8.59a5.33,5.33,0,0,1,5.43-4.66c2.93,0,5.2,1.77,5.36,4.66Z"/><polygon class="cls-1" points="162.81 59.52 156.42 46.05 151.18 46.05 160.35 64.3 154.69 76.74 159.58 76.74 173.71 46.05 168.74 46.05 162.81 59.52"/><path class="cls-1" d="M184.94,45.62a10.74,10.74,0,0,0-7.7,3.08,10.67,10.67,0,0,0,0,15.18A10.75,10.75,0,0,0,184.91,67a10.51,10.51,0,0,0,7.66-3.08,10.31,10.31,0,0,0,3.16-7.67,10,10,0,0,0-3.16-7.55A10.59,10.59,0,0,0,184.94,45.62Zm4.43,15.29a5.64,5.64,0,0,1-4.43,1.89,5.78,5.78,0,0,1-4.46-1.93,6.77,6.77,0,0,1-1.74-4.66,6.49,6.49,0,0,1,1.7-4.54,5.77,5.77,0,0,1,4.47-1.89,5.62,5.62,0,0,1,4.42,1.89,6.61,6.61,0,0,1,1.74,4.62A6.76,6.76,0,0,1,189.37,60.91Z"/><path class="cls-1" d="M210.52,45.62a7.46,7.46,0,0,0-6.28,3.2V46.05h-4.47V66.61h4.59V55.17c0-3.12,1.84-5.2,4.73-5.2s4.55,2,4.55,5.12V66.61h4.58V53.94C218.22,49,215.56,45.62,210.52,45.62Z"/><path class="cls-1" d="M239,49a6.16,6.16,0,0,0-3-2.46,8.9,8.9,0,0,0-3.61-.85,9.44,9.44,0,0,0-7.44,3.24A10.91,10.91,0,0,0,222,56.29a10.8,10.8,0,0,0,2.89,7.47,9.38,9.38,0,0,0,7.24,3.16,9.71,9.71,0,0,0,3.7-.85,6.43,6.43,0,0,0,3.19-2.66v3.2h4.47V35.26H239Zm-1.66,11.94a5.74,5.74,0,0,1-4.43,1.85,5.85,5.85,0,0,1-4.46-1.85,7.13,7.13,0,0,1,0-9.24,5.75,5.75,0,0,1,4.46-1.89,5.68,5.68,0,0,1,4.43,1.89,7,7,0,0,1,0,9.24Z"/><path class="cls-1" d="M251.85,60.06a3.32,3.32,0,0,0-3.47,3.35,3.07,3.07,0,0,0,3,3.16,2.88,2.88,0,0,0,1.15-.23A10.73,10.73,0,0,1,248.69,71l2.08,1.85a10.53,10.53,0,0,0,4.66-8.21v-.19C255.43,61.87,253.85,60.06,251.85,60.06Z"/><path class="cls-1" d="M292.82,45.74a9.33,9.33,0,0,0-2.51-6.63c-1.65-1.77-4.27-2.65-7.77-2.65H271.22V66.61H276V55.17h5.74l6.55,11.44h5.35l-7.16-12.25A8.69,8.69,0,0,0,292.82,45.74ZM276,50.9v-10H282c4.93,0,6,2.69,6,5,0,2.78-1.77,5-6,5Z"/><path class="cls-1" d="M297.23,37.27a3,3,0,1,0,4.24,0A2.88,2.88,0,0,0,297.23,37.27Z"/><rect class="cls-1" x="297.08" y="46.05" width="4.58" height="20.56"/><path class="cls-1" d="M314.39,54.09c-2.66-.57-3.82-1.27-3.82-2.61,0-1.12,1.47-2,2.89-2a4.53,4.53,0,0,1,4.31,2.78l3.55-2c-1.43-3.08-4-4.62-7.7-4.62a8.14,8.14,0,0,0-5.24,1.77,5.55,5.55,0,0,0-2.23,4.55,5.3,5.3,0,0,0,1.46,3.73,9.38,9.38,0,0,0,5.12,2.47c2.81.57,4.24,1.5,4.24,2.69,0,1.39-1.51,2.27-3.24,2.27a5.3,5.3,0,0,1-4.93-3.31l-3.58,2c1.58,3.43,4.43,5.17,8.51,5.17a8.44,8.44,0,0,0,5.62-1.78,5.74,5.74,0,0,0,2.16-4.62C321.51,57.37,319.05,55.13,314.39,54.09Z"/><path class="cls-1" d="M334.47,45.62a9.74,9.74,0,0,0-7.39,3.12,10.57,10.57,0,0,0-3,7.55A10.45,10.45,0,0,0,327.19,64a10.58,10.58,0,0,0,7.71,3,9.74,9.74,0,0,0,8.77-5l-3.31-2.2a5.79,5.79,0,0,1-5.54,3.2,6.28,6.28,0,0,1-4.16-1.5,5.09,5.09,0,0,1-1.85-3.85h15.6c0-.35.07-.81.07-1.43a11,11,0,0,0-2.65-7.7A9.43,9.43,0,0,0,334.47,45.62ZM329,54.21a5.33,5.33,0,0,1,5.43-4.66c2.93,0,5.2,1.77,5.35,4.66Z"/><path class="cls-1" d="M367.93,36.46,355.65,66.61h4.85l2.77-7.09h14.79l2.73,7.09h4.93l-12.2-30.15Zm-3,18.87L370.67,41l5.74,14.33Z"/><path class="cls-1" d="M399.74,45.66a9.3,9.3,0,0,0-3.82.92,6.21,6.21,0,0,0-3,2.51V35.26h-4.58V66.61h4.46V63.45a6.57,6.57,0,0,0,3,2.54,9.1,9.1,0,0,0,3.77.93,9.43,9.43,0,0,0,7.32-3.16A11.1,11.1,0,0,0,407,48.9,9.09,9.09,0,0,0,399.74,45.66Zm3.73,15.25A5.74,5.74,0,0,1,399,62.76a5.85,5.85,0,0,1-4.46-1.85,7.13,7.13,0,0,1,0-9.24A5.75,5.75,0,0,1,399,49.78a5.64,5.64,0,0,1,4.43,1.89,7,7,0,0,1,0,9.24Z"/><path class="cls-1" d="M423.48,45.62a10.74,10.74,0,0,0-7.7,3.08,10.67,10.67,0,0,0,0,15.18A10.75,10.75,0,0,0,423.45,67a10.51,10.51,0,0,0,7.66-3.08,10.31,10.31,0,0,0,3.16-7.67,10,10,0,0,0-3.16-7.55A10.59,10.59,0,0,0,423.48,45.62Zm4.43,15.29a5.63,5.63,0,0,1-4.43,1.89A5.78,5.78,0,0,1,419,60.87a6.77,6.77,0,0,1-1.74-4.66,6.49,6.49,0,0,1,1.7-4.54,5.77,5.77,0,0,1,4.47-1.89,5.62,5.62,0,0,1,4.42,1.89,6.61,6.61,0,0,1,1.74,4.62A6.76,6.76,0,0,1,427.91,60.91Z"/><polygon class="cls-1" points="445.9 61.26 439.86 46.05 434.89 46.05 443.59 66.61 448.18 66.61 456.76 46.05 451.95 46.05 445.9 61.26"/><path class="cls-1" d="M477.79,56.25a11,11,0,0,0-2.65-7.7,9.43,9.43,0,0,0-7.36-2.93,9.74,9.74,0,0,0-7.39,3.12,10.61,10.61,0,0,0-3,7.55A10.42,10.42,0,0,0,460.51,64a10.57,10.57,0,0,0,7.7,3A9.77,9.77,0,0,0,477,62l-3.31-2.2a5.81,5.81,0,0,1-5.55,3.2,6.29,6.29,0,0,1-4.16-1.5,5.09,5.09,0,0,1-1.85-3.85h15.6A12.61,12.61,0,0,0,477.79,56.25Zm-15.44-2a5.33,5.33,0,0,1,5.43-4.66c2.93,0,5.2,1.77,5.36,4.66Z"/></svg>