<svg height="460" viewBox="0 0 500 460" width="500" xmlns="http://www.w3.org/2000/svg"><g fill="none" fill-rule="evenodd"><path d="m88.0816106 24.5722857c17.0886084 0 28.9011674 12.4585714 28.9011674 30.1736508 0 1.9428572-.11508 3.4283333-.230159 4.1137302h-41.6316526c.5740429 6.6286508 6.6515873 11.4304762 13.6484127 11.4304762 6.1926237 0 9.5190943-2.6296032 12.1564429-6.8580159l14.107376 5.6005555c-4.702008 9.2569048-13.877218 14.9721429-26.2638189 14.9721429-17.6626517 0-30.0478992-12.2292064-30.0478992-29.7162698 0-17.0283334 12.6154062-29.7162699 29.3601307-29.7162699zm98.7933334.0004048c9.749253 0 18.923109 5.2565079 22.478385 13.1439682l-13.647059 7.2007143c-1.720775-4.2297619-5.506209-6.9726984-8.946405-6.9726984-3.096312 0-5.274697 1.6001587-5.274697 3.8857143 0 2.0575397 1.605696 3.5430159 4.702008 4.3430952l7.11055 1.8295238c10.665827 2.7429365 16.399487 8.6861905 16.399487 16.6869842 0 11.3144444-9.63282 19.3152381-22.822269 19.3152381-11.239869 0-20.184921-5.1431746-23.970355-13.8293651l13.533334-7.4300794c2.064659 4.6871429 6.309056 7.6580953 10.5521 7.6580953 3.555276 0 5.963819-1.6001588 5.963819-4.3430953 0-1.9428571-1.720775-3.4296825-5.160971-4.2284127l-6.651587-1.6001587c-10.665826-2.5149206-16.172036-8.4581746-16.172036-17.372381 0-10.7437301 8.946406-18.2871428 21.905696-18.2871428zm78.067269 0c9.749253 0 18.924463 5.2565079 22.479738 13.1439682l-13.648412 7.2007143c-1.719421-4.2297619-5.504856-6.9726984-8.946405-6.9726984-3.096312 0-5.274697 1.6001587-5.274697 3.8857143 0 2.0575397 1.605696 3.5430159 4.702007 4.3430952l7.110551 1.8295238c10.667181 2.7429365 16.400841 8.6861905 16.400841 16.6869842 0 11.3144444-9.634174 19.3152381-22.823623 19.3152381-11.238516 0-20.184921-5.1431746-23.969001-13.8293651l13.533333-7.4300794c2.064659 4.6871429 6.307703 7.6580953 10.550747 7.6580953 3.555276 0 5.963819-1.6001588 5.963819-4.3430953 0-1.9428571-1.720775-3.4296825-5.160971-4.2284127l-6.651587-1.6001587c-10.665827-2.5149206-16.172036-8.4581746-16.172036-17.372381 0-10.7437301 8.946406-18.2871428 21.905696-18.2871428zm98.060481-.0004048c17.087255 0 28.899813 12.4585714 28.899813 30.1736508 0 1.9428572-.113725 3.4283333-.228805 4.1137302h-41.631653c.574043 6.6286508 6.652942 11.4304762 13.648413 11.4304762 6.192624 0 9.519094-2.6296032 12.156443-6.8580159l14.107376 5.6005555c-4.702007 9.2569048-13.877218 14.9721429-26.263819 14.9721429-17.662652 0-30.047899-12.2292064-30.047899-29.7162698 0-17.0283334 12.615406-29.7162699 29.360131-29.7162699zm-47.401326-15.08601586v16.57230156h14.336181v13.7146826h-14.336181v20.6873809c0 6.0579365 2.638702 8.4568254 8.143557 8.4568254 2.06466 0 4.35677-.5707143 6.192624-1.713492v14.4014285c-2.522269 1.2561111-6.307703 2.2842064-11.697479 2.2842064-11.928992 0-19.268347-7.3140476-19.268347-19.8859524v-24.2303968h-8.028478v-13.7146826h8.028478v-16.57230156zm168.433814 0v16.57230156h14.334827v13.7146826h-14.334827v20.6873809c0 6.0579365 2.637348 8.4568254 8.143557 8.4568254 2.063306 0 4.35677-.5707143 6.19127-1.713492v14.4014285c-2.522269 1.2561111-6.307703 2.2842064-11.697479 2.2842064-11.927637 0-19.268347-7.3140476-19.268347-19.8859524v-24.2303968h-8.027124v-13.7146826h8.027124v-16.57230156zm-456.738492-6.97134921c17.432493 0 29.4738562 9.37158727 29.4738562 25.82920637 0 16.3442857-12.0413632 25.8305555-29.4738562 25.8305555h-10.0931372v28.344127h-17.20368819v-80.00388887zm130.61887 22.28619047c1.261812 0 2.523623.2280159 2.867507.3426984v17.1443651c-.917927-.4573809-2.523623-.6853968-4.244398-.6853968-9.288935 0-14.79379 6.8566666-14.79379 17.9430952v22.9729365h-16.629646v-56.4602381h16.514566v9.258254c2.982587-6.5153175 8.945052-10.5157143 16.285761-10.5157143zm275.610206-.2281508c12.95929 0 20.874043 8.7995238 20.874043 23.0876191v34.8580952h-16.746079v-30.9737302c0-7.4273809-3.669001-11.6571428-10.206863-11.6571428-6.422782 0-10.665826 4.8004762-10.665826 12.6865873v29.9442857h-16.744724v-56.4602381h16.744724v7.2007143c3.44155-5.485873 9.17521-8.6861905 16.744725-8.6861905zm-199.306765 1.4849365v56.4602381h-16.744725v-56.4602381zm-146.2524697 11.5450238c-6.6515873 0-12.0427171 5.0284921-12.7304855 10.3996826h25.3458912c-.687768-6.0565873-5.8487391-10.3996826-12.6154057-10.3996826zm274.9210827 0c-6.651587 0-12.042717 5.0284921-12.730485 10.3996826h25.345892c-.687769-6.0565873-5.84874-10.3996826-12.615407-10.3996826zm-335.2483936-19.6584762h-10.4356676v21.0287302h10.4356676c6.881746 0 11.8139122-3.8857143 11.8139122-10.5143651s-4.9321662-10.5143651-11.8139122-10.5143651zm198.2074186-17.945119c5.389776 0 9.747899 4.45777777 9.747899 9.71428571 0 5.25785719-4.358123 9.71563489-9.747899 9.71563489-5.39113 0-9.7479-4.4577777-9.7479-9.71563489 0-5.25650794 4.35677-9.71428571 9.7479-9.71428571z" fill="#eee" transform="translate(0 375)"/><path d="m319.08535 56.2798433c-3.601099-10.9279018-9.376681-21.1061435-16.986681-29.5251829-7.58097-8.4376024-16.837384-15.2188131-27.006169-19.80958846-20.354158-9.29150092-44.241678-9.21582095-64.380185-.03855394-20.192419 9.0744565-36.142315 27.0134646-43.38875 48.2195627-1.810917 5.2975978-3.086853 10.7851094-3.802926 16.3411613-.765838 5.5017909-.761691 11.336288-.671836 16.4839537l.28477 31.7541723.479686 63.5112.171415 31.754172c.020735 5.293314-.037325 10.5852.044236 15.877086.02903 2.62738.118884 5.337579.102296 7.894991.033177 2.555984-.143768 5.097689-.193533 7.659384-.32486 5.097688-.887488 10.221079-1.956068 15.280214-1.035402 5.067702-2.698405 10.015458-4.82174 14.749026-4.267406 9.455712-10.297346 18.20603-17.900434 25.302812-15.247647 14.100748-36.12158 21.788691-56.5960048 19.998074-10.2226975-.698255-20.3030099-3.625499-29.3686556-8.547552-9.0849991-4.906347-17.0806829-11.876044-23.4451588-20.149435-3.1974441-4.1267-6.0119691-8.563259-8.4173097-13.222575-2.4067229-4.653604-4.438821-9.529964-5.8474659-14.596238-3.0467647-10.066864-3.7490136-20.794856-2.3624868-31.007368.7603088-5.116252 1.9436258-10.162535 3.5223033-15.024616 1.6450318-4.844946 3.6798947-9.497122 6.0575877-13.865141 2.3431335-4.386582 5.1175694-8.440458 8.1366865-12.158772 2.9693515-3.754012 6.2787684-7.149615 9.9282507-10.036877 14.2675403-11.936016 33.1937-17.067975 52.5373384-17.139371 20.021004.029986 40.040626.334134 60.065778.215616l-.153444-21.690164c-19.933915.439801-39.877506 1.819175-59.8086555 3.322779-11.1143324.846759-22.0945739 3.606936-32.4112732 8.036356-5.1659527 2.179012-10.0706357 4.970603-14.7237256 8.040639-4.6309718 3.114303-9.0310862 6.562739-12.9473678 10.50952-3.9895476 3.862535-7.4883505 8.207707-10.6056166 12.77278-3.1310899 4.560789-5.8668192 9.394311-8.0813914 14.464869-4.62405994 10.066864-7.58649952 20.843406-8.78502267 32.022622-1.10590372 11.283455-.40503724 22.848211 2.16895366 34.068837 2.61822701 11.21777 7.26302271 22.07142 13.82794361 31.894108 6.5815095 9.782707 15.1412043 18.570151 25.3763431 25.264258 10.2185504 6.681256 22.0669263 11.173505 34.1876311 12.995536 1.5178528.282729 3.0315585.428377 4.5521761.592588 1.5164705.168495 3.0384705.332706 4.6365014.381256 1.5842071.088531 3.1684141.148504 4.7498564.114234 1.5869719.009784 3.1725613-.032843 4.7512384-.149932 6.336829-.348414 12.633568-1.453627 18.743686-3.237104 6.114265-1.763486 12.068174-4.155258 17.760814-7.118201 5.699551-2.961514 11.050743-6.624139 16.085369-10.720852 9.966958-8.341932 18.167234-18.952834 24.249704-30.737491.783809-1.462194 1.497117-2.961514 2.170336-4.480825.699484-1.509315 1.331232-3.045762 1.918743-4.603627 1.252436-3.080031 2.267103-6.262874 3.10759-9.479986 1.733504-6.425658 2.813142-12.989824 3.536127-19.541139.254358-3.284225.581982-6.559883.674601-9.838396l.160356-4.263781.200445-3.971056.739573-15.877086.700867-31.754172 1.346437-63.5112.648336-31.7541723.064972-3.9696285.020736-.9495694.038707-.6639846.066354-1.3293972c.113355-1.7663418.315182-3.5169766.593041-5.2461924.581982-3.4527201 1.379615-6.851179 2.573991-10.1139851 2.369398-6.531324 6.092147-12.5114694 10.673353-17.6776981 4.628207-5.1348144 10.283522-9.2929289 16.495936-12.0902318 6.223473-2.7901633 12.97778-4.2052359 19.878619-4.2180873 6.892545-.1156618 13.720118 1.2322984 20.080447 3.9853357 6.354799 2.7458977 12.229913 6.8925887 17.077918 12.124502 4.812064 5.2590437 8.70761 11.4690849 11.194511 18.3002729 2.502107 6.8083412 3.625982 14.263532 3.26518 21.7415695-.330388 7.4380557-2.121952 14.8089986-5.363633 21.5916376-3.259651 6.748368-7.86021 12.971261-13.627498 17.844765-5.747935 4.880644-12.475976 8.550409-19.683704 10.629466-3.595569 1.072371-7.308641 1.800612-11.096361 2.113327l-1.423851.089959c-.518393.027131-.843252.078536-1.562089.087104l-3.843016.107094-7.686031.211333-28.6277.789642-.528069 24.937263 29.155769.396963 7.686031.104238 3.843016.052833 4.115344-.038553c5.550254-.174207 11.096361-.943858 16.518054-2.280395 10.865504-2.617385 21.212616-7.672235 30.098552-14.724751 8.927408-7.013963 16.234667-16.135541 21.596917-26.286652 10.753532-20.395037 12.713746-45.3151653 5.442429-67.1895317" fill="#fd5f07" transform="translate(86)"/></g></svg>