<svg width="64" height="64" viewBox="0 0 64 64" fill="none" xmlns="http://www.w3.org/2000/svg">
  <rect width="64" height="64" rx="12" fill="#1f1f1f"/>
  <path d="M22 34c-4 0-6-3-6-7 0-6 4-11 10-11 1 0 2 .2 3 .6C31 14 34 12 37 12c6 0 11 5 11 11 0 1.2-.2 2.4-.6 3.5 1.6 1.4 2.6 3.5 2.6 5.8 0 4.1-3.4 7.5-7.5 7.5H22z" fill="#e50914" opacity="0.9"/>
  <path d="M21 40h21" stroke="#e50914" stroke-width="2" stroke-linecap="round"/>
  <circle cx="26" cy="28" r="2" fill="#fff"/>
  <circle cx="38" cy="28" r="2" fill="#fff"/>
</svg>