<svg width="1600" height="900" viewBox="0 0 1600 900" fill="none" xmlns="http://www.w3.org/2000/svg">
  <defs>
    <linearGradient id="g1" x1="0" y1="0" x2="1" y2="1">
      <stop offset="0%" stop-color="#1b1b1b"/>
      <stop offset="100%" stop-color="#0f0f0f"/>
    </linearGradient>
    <linearGradient id="g2" x1="0" y1="0" x2="1" y2="1">
      <stop offset="0%" stop-color="#e50914" stop-opacity="0.35"/>
      <stop offset="100%" stop-color="#ff3b2f" stop-opacity="0.15"/>
    </linearGradient>
    <radialGradient id="glow" cx="0.5" cy="0.5" r="0.6">
      <stop offset="0%" stop-color="#e50914" stop-opacity="0.25"/>
      <stop offset="100%" stop-color="#e50914" stop-opacity="0"/>
    </radialGradient>
    <pattern id="grid" width="40" height="40" patternUnits="userSpaceOnUse">
      <path d="M40 0H0V40" stroke="#2a2a2a" stroke-width="1"/>
    </pattern>
  </defs>
  <rect width="1600" height="900" fill="url(#g1)"/>
  <rect width="1600" height="900" fill="url(#grid)"/>
  <g opacity="0.8">
    <circle cx="400" cy="200" r="220" fill="url(#glow)"/>
    <circle cx="1300" cy="600" r="280" fill="url(#glow)"/>
  </g>
  <g opacity="0.5">
    <path d="M0 700 C 300 600, 600 800, 900 720 S 1500 660, 1600 700" fill="none" stroke="url(#g2)" stroke-width="2"/>
    <path d="M0 780 C 320 720, 620 860, 940 780 S 1500 760, 1600 820" fill="none" stroke="url(#g2)" stroke-width="2"/>
  </g>
  <g opacity="0.35">
    <circle cx="1150" cy="240" r="6" fill="#e50914"/>
    <circle cx="250" cy="640" r="6" fill="#e50914"/>
    <circle cx="980" cy="520" r="4" fill="#e50914"/>
    <circle cx="720" cy="320" r="4" fill="#e50914"/>
  </g>
</svg>